<?xml version="1.0" encoding="utf-8"?>
<!-- Generator: Adobe Illustrator 20.0.0, SVG Export Plug-In . SVG Version: 6.00 Build 0)  -->
<svg version="1.1" id="Calque_1" xmlns="http://www.w3.org/2000/svg" xmlns:xlink="http://www.w3.org/1999/xlink" x="0px" y="0px"
	 viewBox="0 0 1000 787.5" style="enable-background:new 0 0 1000 787.5;" xml:space="preserve">
<style type="text/css">
	.st0{fill:#1DEFC7;}
	.st1{fill:#00BC9E;}
	.st2{fill:#FFFFFF;}
</style>
<g>
	<g>
		<polygon class="st0" points="262.1,616.4 132.9,96.6 498,24.6 498,761.1 		"/>
		<path class="st1" d="M490,34.5V746L269.7,611l-126-507.8L490,34.9 M507,14.2L122.8,89.9L255,621.9l252,154.4V14.2L507,14.2z"/>
	</g>
	<g>
		<polygon class="st1" points="513.9,24.6 716.9,64.7 842,242.2 750,616.7 513.3,761.3 		"/>
		<path class="st1" d="M522.4,34.9l189.4,37.5l121,171.5l-90.3,367.3L521.8,746.1L522.4,34.9 M505.5,14.2l-0.7,762.2l252.7-154.4
			l93.8-381.7L721.8,57.1L505.5,14.2L505.5,14.2z"/>
	</g>
</g>
<g>
	<path class="st1" d="M724.1,97.9l89.1,126.2l-111.9-22.2L724.1,97.9 M719.2,73.6l-29.8,136l146.5,29.1L719.2,73.6L719.2,73.6z"/>
	<polygon class="st0" points="835.8,238.7 719.2,73.6 689.3,209.6 	"/>
</g>
<g>
	<g>
		<g>
			<polygon class="st2" points="16,319 101.6,302.2 115.9,375 163.4,365.7 149.1,292.9 234.6,276.1 280,507.2 194.4,524 
				178.1,440.9 130.6,450.2 146.9,533.3 61.4,550.1 			"/>
			<path class="st0" d="M227.9,286.1L270,500.5L201.1,514l-16.3-83.1l-64.2,12.6l16.3,83.1l-68.9,13.5L26,325.7l68.9-13.5l14.3,72.8
				l64.2-12.6l-14.3-72.8L227.9,286.1 M241.3,266.1l-16.7,3.3l-68.9,13.5l-16.7,3.3l3.3,16.7l11,56.1l-30.8,6l-11-56.1l-3.3-16.7
				l-16.7,3.3L22.7,309l-16.7,3.3L9.3,329l42.1,214.4l3.3,16.7l16.7-3.3l68.9-13.5l16.7-3.3l-3.3-16.7l-13-66.4l30.8-6l13,66.4
				l3.3,16.7l16.7-3.3l68.9-13.5l16.7-3.3l-3.3-16.7l-42.1-214.4L241.3,266.1L241.3,266.1z"/>
		</g>
		<g>
			<polygon class="st2" points="317.9,335.7 256.2,347.8 241.8,274.7 450.8,233.7 465.1,306.8 403.4,319 434.4,476.9 348.9,493.7 
							"/>
			<path class="st0" d="M444.1,243.7l11.1,56.5l-61.7,12.1l31,157.9l-68.9,13.5l-31-157.9l-61.7,12.1l-11.1-56.5L444.1,243.7
				 M457.5,223.7l-16.7,3.3l-192.3,37.7l-16.7,3.3l3.3,16.7l11.1,56.5l3.3,16.7l16.7-3.3l45-8.8L338.9,487l3.3,16.7l16.7-3.3
				l68.9-13.5l16.7-3.3l-3.3-16.7l-27.7-141.3l45-8.8l16.7-3.3l-3.3-16.7l-11.1-56.5L457.5,223.7L457.5,223.7z"/>
		</g>
	</g>
	<g>
		<g>
			<polygon class="st2" points="688.6,500.2 704.8,420.9 669,496.3 608,484.3 603.3,404.3 588.2,480.3 509.2,464.7 555,233.7 
				653.5,253.2 662.2,369 715.1,265.4 813.4,284.9 767.6,515.9 			"/>
			<path class="st1" d="M561.7,243.7l83.8,16.6l8.5,112.8c0.1,1.5,0.2,5,0.4,10.4c0.1,5.4,0.4,12.9,0.7,22.4
				c2.8-6.9,5.3-12.9,7.5-18.1c2.2-5.2,4.1-9,5.5-11.5L719.7,275l83.7,16.6l-42.5,214.3l-62.3-12.3l21.5-105.4
				c1.3-6.4,2.5-12.6,3.8-18.7c1.2-6.1,2.6-12.3,4-18.8c-4.5,10.6-9.7,22.1-15.6,34.6l-0.8,1.8l-47.3,99.7l-48-9.5l-6.4-107.9
				c-0.3-4.9-0.5-10.5-0.6-16.8c-0.1-6.3-0.1-14.7-0.1-25.4c-1.5,9.3-2.9,17.2-4,23.8c-1.2,6.6-2.1,11.9-2.9,15.9l-20.5,103.5
				L519.2,458L561.7,243.7 M548.3,223.7l-3.3,16.7l-42.5,214.3l-3.3,16.7l16.7,3.3l62.3,12.3l16.7,3.3l3.3-16.7l0.5-2.8l0.4,7.3
				l0.8,13.1l12.9,2.6l48,9.5l13,2.6l5.7-12l3-6.2l-0.5,2.4l-3.4,16.7l16.8,3.3l62.3,12.3l16.7,3.3l3.3-16.7l42.5-214.3l3.3-16.7
				l-16.7-3.3L723,258.3l-12.6-2.5l-5.8,11.5l-36.2,70.9l-6-79.2l-1-12.9l-12.7-2.5L565,227L548.3,223.7L548.3,223.7z"/>
		</g>
		<g>
			<polygon class="st2" points="791.4,520.6 837.2,289.6 922.7,306.5 891.5,464 985,482.5 970.4,556.1 			"/>
			<path class="st1" d="M843.8,299.6l68.8,13.6l-31.2,157.4l93.6,18.5l-11.3,56.9l-162.4-32.2L843.8,299.6 M830.5,279.6l-3.3,16.7
				l-42.5,214.3l-3.3,16.7l16.7,3.3l162.4,32.2l16.7,3.3l3.3-16.7l11.3-56.9l3.3-16.7l-16.7-3.3l-76.9-15.2l27.9-140.8l3.3-16.7
				l-16.7-3.3l-68.8-13.6L830.5,279.6L830.5,279.6z"/>
		</g>
	</g>
</g>
<g>
	<g>
		<g>
			<polygon class="st2" points="365.9,619.9 365.9,589 456.2,533.6 456.2,563.8 389,604.6 456.2,645.2 456.2,675.2 			"/>
		</g>
		<g>
			<path class="st0" d="M453.7,538.1v24.4l-62.4,37.9l-7.1,4.3l7.1,4.3l62.4,37.8v24.1l-85.3-52.3v-28.1L453.7,538.1 M458.7,529.2
				l-95.3,58.4v33.7l95.3,58.4v-35.9l-64.8-39.2l64.8-39.3V529.2L458.7,529.2z"/>
		</g>
	</g>
	<g>
		<g>
			<polygon class="st2" points="558.4,645.2 625.6,604.6 558.4,563.8 558.4,533.6 648.8,589 648.8,619.9 558.4,675.2 			"/>
		</g>
		<g>
			<path class="st1" d="M560.9,538.1l85.3,52.3v28.1l-85.3,52.3v-24.1l62.4-37.8l7.1-4.3l-7.1-4.3l-62.4-37.9V538.1 M555.9,529.2
				v36.1l64.8,39.3l-64.8,39.2v35.9l95.3-58.4v-33.7L555.9,529.2L555.9,529.2z"/>
		</g>
	</g>
</g>
</svg>
